<mxfile host="Electron" modified="2023-08-07T13:59:43.748Z" agent="Mozilla/5.0 (Windows NT 10.0; Win64; x64) AppleWebKit/537.36 (KHTML, like Gecko) draw.io/21.6.5 Chrome/114.0.5735.243 Electron/25.3.1 Safari/537.36" etag="a8fPJnpf-4FuXrGwRqtp" version="21.6.5" type="device">
  <diagram name="Page-1" id="cS87bJXDQE7XmjKyF6fR">
    <mxGraphModel dx="880" dy="545" grid="1" gridSize="10" guides="1" tooltips="1" connect="1" arrows="1" fold="1" page="1" pageScale="1" pageWidth="1169" pageHeight="827" math="0" shadow="0">
      <root>
        <mxCell id="0" />
        <mxCell id="1" parent="0" />
        <mxCell id="wfA9Fv52Ghw6FVa2Voft-4" style="edgeStyle=orthogonalEdgeStyle;rounded=0;orthogonalLoop=1;jettySize=auto;html=1;exitX=1;exitY=0.25;exitDx=0;exitDy=0;labelBackgroundColor=none;endArrow=none;align=left;verticalAlign=bottom;startArrow=halfCircle;startFill=0;startSize=2;spacingLeft=9;spacingBottom=17;entryX=1;entryY=0.25;entryDx=0;entryDy=0;" edge="1" parent="1">
          <mxGeometry relative="1" as="geometry">
            <mxPoint x="360" y="141" as="targetPoint" />
            <mxPoint x="430" y="141" as="sourcePoint" />
          </mxGeometry>
        </mxCell>
        <mxCell id="wfA9Fv52Ghw6FVa2Voft-5" value="Person" style="edgeLabel;html=1;align=center;verticalAlign=middle;resizable=0;points=[];" vertex="1" connectable="0" parent="wfA9Fv52Ghw6FVa2Voft-4">
          <mxGeometry x="-0.0286" y="-1" relative="1" as="geometry">
            <mxPoint x="10" y="-10" as="offset" />
          </mxGeometry>
        </mxCell>
        <mxCell id="wfA9Fv52Ghw6FVa2Voft-8" style="edgeStyle=orthogonalEdgeStyle;rounded=0;orthogonalLoop=1;jettySize=auto;html=1;exitX=1;exitY=0.75;exitDx=0;exitDy=0;labelBackgroundColor=none;endArrow=none;align=left;verticalAlign=bottom;startArrow=halfCircle;startFill=0;startSize=2;spacingLeft=9;spacingBottom=17;entryX=1;entryY=0.75;entryDx=0;entryDy=0;" edge="1" parent="1">
          <mxGeometry relative="1" as="geometry">
            <mxPoint x="360" y="181" as="targetPoint" />
            <mxPoint x="430" y="181" as="sourcePoint" />
          </mxGeometry>
        </mxCell>
        <mxCell id="wfA9Fv52Ghw6FVa2Voft-9" value="Invoice" style="edgeLabel;html=1;align=center;verticalAlign=middle;resizable=0;points=[];" vertex="1" connectable="0" parent="wfA9Fv52Ghw6FVa2Voft-8">
          <mxGeometry x="-0.0356" relative="1" as="geometry">
            <mxPoint x="10" y="-10" as="offset" />
          </mxGeometry>
        </mxCell>
        <mxCell id="wfA9Fv52Ghw6FVa2Voft-13" style="edgeStyle=orthogonalEdgeStyle;rounded=0;orthogonalLoop=1;jettySize=auto;html=1;labelBackgroundColor=none;endArrow=none;verticalAlign=bottom;startArrow=oval;startFill=0;startSize=8;entryX=0;entryY=0.75;entryDx=0;entryDy=0;" edge="1" parent="1">
          <mxGeometry relative="1" as="geometry">
            <mxPoint x="200" y="181" as="targetPoint" />
            <mxPoint x="150" y="181" as="sourcePoint" />
          </mxGeometry>
        </mxCell>
        <mxCell id="wfA9Fv52Ghw6FVa2Voft-14" value="Tracking" style="edgeLabel;html=1;align=center;verticalAlign=middle;resizable=0;points=[];" vertex="1" connectable="0" parent="wfA9Fv52Ghw6FVa2Voft-13">
          <mxGeometry x="-0.92" y="2" relative="1" as="geometry">
            <mxPoint x="11" y="-12" as="offset" />
          </mxGeometry>
        </mxCell>
        <mxCell id="wfA9Fv52Ghw6FVa2Voft-1" value="«component»&lt;br&gt;&lt;b&gt;Order&lt;/b&gt;" style="html=1;dropTarget=0;whiteSpace=wrap;" vertex="1" parent="1">
          <mxGeometry x="200" y="120" width="160" height="80" as="geometry" />
        </mxCell>
        <mxCell id="wfA9Fv52Ghw6FVa2Voft-2" value="" style="shape=module;jettyWidth=8;jettyHeight=4;" vertex="1" parent="wfA9Fv52Ghw6FVa2Voft-1">
          <mxGeometry x="1" width="20" height="20" relative="1" as="geometry">
            <mxPoint x="-27" y="7" as="offset" />
          </mxGeometry>
        </mxCell>
        <mxCell id="wfA9Fv52Ghw6FVa2Voft-3" value="OrderableItem" style="html=1;verticalAlign=bottom;labelBackgroundColor=none;startArrow=halfCircle;startFill=0;startSize=2;endArrow=none;rounded=0;entryX=0.5;entryY=1;entryDx=0;entryDy=0;align=left;spacingLeft=9;spacingBottom=17;" edge="1" parent="1" target="wfA9Fv52Ghw6FVa2Voft-1">
          <mxGeometry x="-1" y="3" relative="1" as="geometry">
            <mxPoint x="280" y="260" as="sourcePoint" />
            <mxPoint x="380" y="280" as="targetPoint" />
          </mxGeometry>
        </mxCell>
        <mxCell id="wfA9Fv52Ghw6FVa2Voft-12" value="ItemAllocation" style="html=1;verticalAlign=bottom;labelBackgroundColor=none;startArrow=oval;startFill=0;startSize=8;endArrow=none;rounded=0;entryX=0;entryY=0.25;entryDx=0;entryDy=0;" edge="1" parent="1" target="wfA9Fv52Ghw6FVa2Voft-1">
          <mxGeometry x="-1" y="3" relative="1" as="geometry">
            <mxPoint x="150" y="140" as="sourcePoint" />
            <mxPoint x="190" y="140" as="targetPoint" />
          </mxGeometry>
        </mxCell>
        <mxCell id="wfA9Fv52Ghw6FVa2Voft-15" value="&lt;b&gt;Figure 11.40 A Component with two provided and three required Interfaces&lt;/b&gt;" style="text;html=1;align=left;verticalAlign=middle;resizable=0;points=[];autosize=1;strokeColor=none;fillColor=none;" vertex="1" parent="1">
          <mxGeometry x="120" y="268" width="450" height="30" as="geometry" />
        </mxCell>
      </root>
    </mxGraphModel>
  </diagram>
</mxfile>
